<svg id="Calque_1" data-name="Calque 1" xmlns="http://www.w3.org/2000/svg" viewBox="0 0 498 394"><defs><style>.cls-1{fill:#fff;}</style></defs><rect width="498" height="394"/><path class="cls-1" d="M253.36,295.3l4.52,1.11.38-.57-9.58-8.57h2.59l.18-.34c-.42-.36-.82-.74-1.25-1.09-1.36-1.09-2.74-2.15-4.08-3.26a2.1,2.1,0,0,0-2.69-.33c-1.9,1.14-3.85,2.22-5.71,3.43-.38.25-.45.95-.69,1.42a4.16,4.16,0,0,1-.79,1.31c-2.19,1.78-4.45,3.48-6.63,5.27a13,13,0,0,0-1.56,1.82l.33.45,4.73-1.42.18.39-19.24,13.5-.16-.19c1.78-1.82,3.43-3.8,5.37-5.43,1.3-1.09,2.37-2.34,2.33-3.87-.1-3.21,1.69-5.75,2.6-8.57a43.26,43.26,0,0,1,3.33-7.06,10,10,0,0,1,2.49-3.13,6.81,6.81,0,0,0,2.86-7.13c-.31-1.6.54-2.67,1.29-3.94.61-1,.59-2.43.86-3.66a7.94,7.94,0,0,1,.67-2.66,8,8,0,0,0,1.18-3.95,15.28,15.28,0,0,1,1.72-4.8c.91-1.85,2.07-3.58,3.36-5.74,1.22,1.9,2.39,3.61,3.41,5.4a12.21,12.21,0,0,1,1.27,3.24,10.74,10.74,0,0,1-.18,2.3,3.9,3.9,0,0,0,.26,2c1.13,1.61,2.81,2.79,2.78,5.16,0,.86,1.22,1.72,1.87,2.58a2.87,2.87,0,0,1,.57,3.35,5.56,5.56,0,0,0,.9,5.72,5.77,5.77,0,0,1,1.14,2,3,3,0,0,0,2.07,2.28,2.72,2.72,0,0,1,1.32,1.48c1.52,4,3.5,7.87,4.28,12,1.19,6.31,5.87,8.94,10.58,11.8a3,3,0,0,1,.35.43c-2,.22-3.85.1-5.32-1-4.35-3.34-8.59-6.83-12.86-10.28A8.46,8.46,0,0,1,253.36,295.3Z"/><path class="cls-1" d="M168.06,258.69l4.59,1.94.39-.6-10.71-10.71.28-.41L168.2,252v-2.82l.39-.25,5.08,5.33.5-.31a6.09,6.09,0,0,0-.43-1.59c-.86-1.44-1.87-2.79-2.73-4.22-2.83-4.67-5.58-9.38-8.43-14-1.13-1.85-2.42-3.6-3.63-5.4a12,12,0,0,1-.62-1.3l3.15,1.48.35-.43q-5.1-8.75-10.21-17.5l.37-.32,8.54,10.19.69-.37c-.59-1.43-1.17-2.85-1.75-4.28l.36-.19,5.24,7.42.64-.35q-1-2.16-2-4.3l.27-.23q5.19,5.94,10.4,11.87l.6-.36c-.11-.69-.22-1.38-.43-2.61l5.68,3.85.37-.29-8-13.1.34-.29,10,11.1.42-.05a6,6,0,0,0-.37-1.95c-.66-1.14-.69-1.75,1.27-1.56l-5.94-10,2,.53-8-14.56.2-.24A12.75,12.75,0,0,1,174,202.2c1.69,2,3.34,4,5,6.06,1,1.26,1.39,1.23,2.15-.39l4.49,6.8.81-1.51,2,1.57.34-.19q-4.68-10.59-9.37-21.16l.23-.14,2.59,2.76.6-.32-8-20.26a6.42,6.42,0,0,1,1,.72,7.19,7.19,0,0,1,.69,1l.54-.21c-1.75-4.95-3.48-9.9-5.26-14.85s-3.56-9.82-5.34-14.73l.4-.18L181,168.27l.66-.29-2.29-6,.16,0q7,9.08,13.93,18.16c.09.12.39.08.87.16-2.64-7.29-5.22-14.39-8-22l2.22,2.42.54-.31q-3.07-11.5-6.12-23c2.19,1,1.49,4.3,4.21,5.67-.67-2.43-1.27-4.39-1.75-6.38-.74-3-1.36-6.12-2.13-9.16-.53-2.11-1.24-4.17-1.83-6.26a3.64,3.64,0,0,1,0-1l.88.18,1.74.28a10.71,10.71,0,0,0-.33-1.81c-1.06-3.07-2.16-6.13-3.25-9.2l.48-.26,4.87,8,.33-.14V115.7l.45-.18,8.79,18.85.52-.14v-3.48l.36-.06,7.09,14.92.66-.17c-.27-1.6-.53-3.21-.79-4.81l.26-.1q1.19,2.79,2.35,5.58l.49-.14c.35-2.89-.9-5.58-1.55-8.35l.44-.16,3.19,5.4c2.4-1.18,1.26-3.19,1.06-4.78-.35-2.78-1.08-5.53-1.67-8.28-.46-2.17-1-4.33-1.4-6.51a13.31,13.31,0,0,1,0-2.17l1.22,1.52.46-.18c-.54-1.67-1.09-3.34-1.78-5.48l3.42,2.55.45-.25q-1.62-6-3.25-12l.57-.18,4.47,11,.53-.11v-2.75l.49-.13c.35.71.73,1.41,1,2.14.64,1.48,1.24,3,1.86,4.48a1.58,1.58,0,0,0,.42.69c2.6,1.64,2.93,4.62,4.19,7,.3.58.68,1.13,1,1.69l.51-.14c0-.5,0-1,0-1.5-.1-3.11-.21-6.23-.29-9.35,0-.29.14-.83.26-.84,1.76-.21,1.17-1.54,1.19-2.51,0-2.35,0-4.7,0-7.19l1.3.31V94.8l.45-.11q1.86,7.66,3.71,15.33h.45l.81-1.66.37-.09c.22,1.24.46,2.48.67,3.73.06.32,0,.7.1,1s.59.72.76.67a1.33,1.33,0,0,0,.82-.8c.73-4.28,1.39-8.58,2.09-12.87.3-1.81.66-3.62,1-5.58l1.67,1c1.68-7.58,3.34-15,5-22.48l.54.05c.63,7.17,1.26,14.35,1.91,21.68l1.75-1.32c.71,8.17,1.41,16.17,2.11,24.17l.42,0a13.76,13.76,0,0,0,.9-2c.62-2.43,1.18-4.87,1.74-7.31.16-.73.39-1.07,1.22-.65a1.24,1.24,0,0,0,1.08-.52c.88-2.8,1.74-5.61,2.47-8.45.5-1.94.76-4,1.19-5.92a43.4,43.4,0,0,1,1.72-6.12v16.94l1.57.18c0,5.07-.32,10.12.12,15.11a75.88,75.88,0,0,1,.58,8.52c0,.73,0,1.47,0,2.2l.4.22a6.09,6.09,0,0,0,1-1.16c1.24-2.4,2.32-4.89,3.67-7.23a44,44,0,0,1,3-3.87,8.91,8.91,0,0,0,.78-1.68l.43.14v2.77l.54.2c1.26-2.52,2.51-5,3.77-7.57l.44.18-1.41,4.88c0,.11-.13.18-.17.28-1,2.16-.76,2.57,1.74,3-.37,1.14-.77,2.23-1.08,3.35s-.51,2.16-.8,3.37l1.92-.08c-1,5-2,9.85-3,14.74l.5.31,2.23-2.75c-.38,1.49-.66,2.61-.93,3.73l.4.12c.53-1,1.05-2,1.57-3l.52.15c-.55,2.43-1.11,4.87-1.66,7.3l.69.23c1.9-2.71,2.58-6,4-9l.52.12-1.45,6.84.8.23,7.68-15.9.36.09c-.2,1-.41,2-.61,3l.49.14,9.48-17.09c.22,1,.35,1.62.59,2.72l3.3-7.14.36.11q-1.37,4.81-2.74,9.65l.48.32,2-1.94.28.14q-1.47,6.11-2.92,12.21c-1,4-1.9,8.05-2.85,12.07l.74.25,3.1-6.05.47.17c-2.08,7.11-4.16,14.22-6.32,21.58l2-1.21-6.28,21.69.51.31c2.79-2.89,4.72-6.46,7.08-9.7s4.75-6.71,7.42-9.9l-2.85,7,.68.37c2.88-3.41,4.89-7.45,7.46-11.08s5-7.48,7.49-11.23l.4.23q-6.56,16.25-13.12,32.5l.53.34,3.09-3.37.52.31q-4.36,9.48-8.74,19l.39.34,2.35-1.45c-2.71,7-5.26,13.54-7.81,20.1l.61.38,6.46-7.2.46,2.15c3.46-2.68,5.81-6.17,9.12-8.64q-4.71,8.22-9.4,16.45l.31.39,2.36-.7-6.39,8.34.36.51,2.93-1.5c-.41.9-.73,1.61-1,2.32l.24.1,8.82-8.73.51.38q-4,7.55-7.94,15.09l.57.41c2.44-1.82,4-4.53,6.2-6.79.66,1.14,1.37.68,2.12.05q9-7.58,18-15.12a24.37,24.37,0,0,1,3.75-2.73l-33.12,51.8.54.44c.85-.79,1.75-1.53,2.53-2.38a19.4,19.4,0,0,1,7.12-5.15,28.92,28.92,0,0,0,3-2c.95-.52,2.06-.78,3-1.3a16.67,16.67,0,0,0,2.34-1.68c.88-.69,1.73-1.43,2.59-2.14l.34.31-5.4,6.7h2.6a3.73,3.73,0,0,1-.46.94c-4.91,4.73-9.84,9.44-14.74,14.18a8.71,8.71,0,0,0-1,1.53l.34.39,6.64-3.88.26.39L289,284.54c2.74.68,3.89-1.78,6.07-1.87l-1.3,1.63.21.43c2.69-.11,4.46-2.67,7.54-3.24l-24.95,26.42c-.14-.2-.37-.38-.35-.53.5-3.58-1.79-6.26-2.9-9.33a32,32,0,0,1-1.37-6.07c-.53-3.56-.85-7.14-1.39-10.7-.18-1.16-.22-1.9.91-2.7,2.22-1.56,2.17-2.93,1.44-5.54-.56-2-.3-4.3-.3-6.46,0-.17.88-.45,1.35-.47a7,7,0,0,1,1.71.42,9.57,9.57,0,0,0,.46-2.83c-.26-1.78.69-2.71,1.92-3.65.44-.33.61-1,.9-1.52a10.27,10.27,0,0,0-1.67.08c-1,.21-2.06,1-2.59-.77-.24-.78-.89-.71-1.55-.11-1.27,1.15-2.64,2.19-4.18,3.45a3.68,3.68,0,0,0-3.21-3c-1.18-.22-2.4-3-1.76-4a1.5,1.5,0,0,1,1.09-.44,10,10,0,0,0,2.11,0c.53-.17.9-.82,1.35-1.25-.36-.34-.73-1-1.08-1-2.67.09-3.37-2.4-5.07-3.51.12-.25.15-.39.22-.43.88-.48,2.15-.75,2.53-1.49s-.44-1.75-.76-2.77c-1.08-.69-2.76,1.81-3.69-.87a20.2,20.2,0,0,0,1.73-1.91,3.85,3.85,0,0,0,.36-1.4,4.83,4.83,0,0,0-1.29.38,7.66,7.66,0,0,0-1.17,1.05l-.56-.23.69-2.65c-2-.79-1.66-3-2.22-4.81-.4-1.3-1-2.39,0-3.66.17-.21-.14-1.14-.48-1.36a4.47,4.47,0,0,1-2.07-4.29,7.14,7.14,0,0,0-.41-2.35,1.61,1.61,0,0,1,1.25-2.21c1.51-.48,2-1.35,1.52-2.84a29.24,29.24,0,0,1-1.22-4.92,7.11,7.11,0,0,0-2.11-4.11c-.58-.62-1.74-1.34-.71-2.44a9.45,9.45,0,0,1,1.85-1.19,14.72,14.72,0,0,1,1.28,2.33c.76,2.09,1.23,4.3,2.12,6.32,1.39,3.16,4,5.22,7,6.79a26,26,0,0,0,9.24,2.78,23.12,23.12,0,0,1,5.79,1.62,1.67,1.67,0,0,0,2.32-.75c1-1.38,2-2.74,2.91-4.14a2.07,2.07,0,0,0,.36-1.21c-.21-1.85-3.29-5-5.14-5a3.44,3.44,0,0,0-2.23,1.34c-1.2,1.5-1.78,1.62-3.28.42a16.82,16.82,0,0,0-2.22-1.31,7.8,7.8,0,0,1-1.53-.93A32.79,32.79,0,0,1,268,207a10,10,0,0,1-1.24-4.66c-.2-2.82-.09-5.65-.08-8.48a9.68,9.68,0,0,1,.22-1.93,8.41,8.41,0,0,0-.88-6.33,5.21,5.21,0,0,0-4.53-2.46,51.82,51.82,0,0,0-8-.11c-2.21.26-3.63-.75-5.1-1.91a5.36,5.36,0,0,1-1.33-2.07c3.74.94,6.43-1.19,9.4-2.33l0-.54-3.48-1.2a15.86,15.86,0,0,0,2.26-3.16,60.37,60.37,0,0,0,1.93-6.69,22.9,22.9,0,0,0,.33-3.12l-2.66,1c-.08,0-.2,0-.25-.05A16.82,16.82,0,0,0,255,160c-.09-2.35-.41-2.49-2.15-1.54a34.08,34.08,0,0,0-.43-5.67c-.41-1.78-.69-3.83-2.66-5.19L249,150l-.47.1c-.46-1-.87-2.05-1.4-3-.88-1.62-1.8-3.21-2.82-4.75a1.36,1.36,0,0,0-1.29-.12c-1.09,1.44-2.06,3-3.08,4.46-.45.67-.91,1.32-1.5,2.18a14.27,14.27,0,0,1-.95-1.11,21.56,21.56,0,0,0-1.54-2.31c-.18-.21-.85,0-1.29,0,.33,2.16-1.39,3.42-2.21,5.08a11.94,11.94,0,0,0-1.22,6.49,8.54,8.54,0,0,1-.12,1.51l-.58.24-3.09-4.58c-1.7,4.21-.92,7.9.47,11.92l-3.85-2.26-.38.3a50.79,50.79,0,0,0,2.43,6.11,59.11,59.11,0,0,0,4,5.72L225.7,178c.8.47,1.37,1.07,2,1.12,2.23.19,4.46.17,6.69.26.35,0,.91.06,1,.25a1.29,1.29,0,0,1-.06,1.16c-.73.63-1.69,1-2.34,1.68-.91,1-1.56.14-2.39.06a14,14,0,0,0-3.91.7c-.41.08-.9.35-1.21.21-2.48-1.12-4.57.25-6.08,1.64-1.14,1-1.29,3.19-1.82,4.87a2,2,0,0,0,0,1.13c1.2,3.68-.3,7.16-.74,10.72a1.58,1.58,0,0,0,0,.65c.88,2.88-.79,5-2.48,6.79-1.88,2-3.77,4.33-6.76,4.79a6.46,6.46,0,0,1-3.15-.45,6.19,6.19,0,0,0-5.92,1.58,4,4,0,0,0-.34,5c.69.95,1.11,2.09,1.72,3.11a1.25,1.25,0,0,0,.87.58c1.92,0,3.93.45,5.67-.83s3.61-1.37,5.54-1.7a18.83,18.83,0,0,0,12.34-7.61c.45-.6.64-1.39,1.11-2a6.09,6.09,0,0,1,1.46-1,8.23,8.23,0,0,1,.66,2.12,5.89,5.89,0,0,1-.74,1.92c2.05,0,2.38.83,1.92,2.51s-.26,3.6-.68,5.33c-.6,2.43-1.49,4.8-2.33,7.17a5.31,5.31,0,0,1-1.12,1.61c-1.23,1.42-1.19,1.76.46,2.61a22.68,22.68,0,0,1-1.91,3c-1.4,1.58-1.1,3.55-1.19,5.32-.12,2.19-1.36,3.73-2.27,5.48a7.83,7.83,0,0,1-1.17,1.54c-1,1.1-1.22,2.08.16,3.09a1.31,1.31,0,0,1,.15,1.25,19.25,19.25,0,0,1-1.51,2.33c-.29-.44-.43-.91-.69-1-.48-.14-1.3-.26-1.5,0a17.23,17.23,0,0,0-1.48,2.59c1.57.66,3.19,1.31,4.79,2a2.18,2.18,0,0,1,1,.78,3.84,3.84,0,0,1,.18,1.29,6,6,0,0,1-1.28-.2c-1.85-.69-3.68-1.45-6.24-1,.6.72,1,1.17,1.35,1.59.79.85,1.6,1.68,2.4,2.52-1,.67-1.94,1.3-2.87,2-1.32,1-2.63,2-3.87,3.14-.31.29-.31.93-.45,1.41l.37.32,3.69-2.18c0,.52.24,1.1.06,1.49a23.1,23.1,0,0,0-1.46,2.52,6.4,6.4,0,0,0,.14,2.52c.09.66.53,1.32.46,1.95-.16,1.51-.13,1.73,1,2.29-.43,4.17-1,8.26-1.23,12.38-.15,2.59-1.2,4.77-2.17,7.08-1.37,3.28-2.44,6.69-3.69,10.2l-21.11-24.51,4.46.22-.78-2.18,4.94,2.62.47-.66L168,259Z"/></svg>